<svg width="637" height="400" viewBox="0 0 637 400" fill="none" xmlns="http://www.w3.org/2000/svg">
<path d="M179.64 234.32V81.68H119.16L9.72 234.32V280.76H126.72V329H179.64V280.76H203.76V234.32H179.64ZM67.68 234.32L126.72 152.96V234.32H67.68ZM225.27 244.76C225.27 295.16 262.71 332.96 318.15 332.96C373.95 332.96 411.39 295.16 411.39 244.76V168.08C411.39 117.68 373.95 79.52 318.15 79.52C262.71 79.52 225.27 117.68 225.27 168.08V244.76ZM359.91 244.4C359.91 268.52 342.27 285.08 318.15 285.08C294.03 285.08 276.39 268.52 276.39 244.4V168.44C276.39 144.32 294.03 127.76 318.15 127.76C342.27 127.76 359.91 144.32 359.91 168.44V244.4ZM602.57 234.32V81.68H542.09L432.65 234.32V280.76H549.65V329H602.57V280.76H626.69V234.32H602.57ZM490.61 234.32L549.65 152.96V234.32H490.61Z" fill="white"/>
<path d="M398.8 168.2V244.7C398.8 288.5 366.3 321 318.4 321C270.8 321 238.3 288.5 238.3 244.7V168.2C238.3 124.4 270.8 91.6 318.4 91.6C366.3 91.6 398.8 124.3 398.8 168.2Z" stroke="#E0E0E0" stroke-miterlimit="10"/>
<path d="M385.9 168.2V244.5C385.9 281.8 358.4 308.9 318.4 308.9C278.6 308.9 251.1 281.7 251.1 244.5V168.2C251.1 130.9 278.6 103.6 318.4 103.6C358.3 103.6 385.9 131 385.9 168.2Z" stroke="#E0E0E0" stroke-miterlimit="10"/>
<path d="M373 168.3V244.4C373 275.1 350.4 297 318.4 297C286.4 297 263.9 275.1 263.9 244.4V168.3C263.9 137.6 286.5 115.7 318.4 115.7C350.4 115.7 373 137.6 373 168.3Z" stroke="#E0E0E0" stroke-miterlimit="10"/>
<path d="M360 242H411.4" stroke="#E0E0E0" stroke-miterlimit="10"/>
<path d="M358.5 255L372.199 256.4" stroke="#E0E0E0" stroke-miterlimit="10"/>
<path d="M369 265L382.3 266.4" stroke="#E0E0E0" stroke-miterlimit="10"/>
<path d="M379 275L392.5 276.4" stroke="#E0E0E0" stroke-miterlimit="10"/>
<path d="M388 285L401.6 286.5" stroke="#E0E0E0" stroke-miterlimit="10"/>
</svg>
