<svg width="23" height="13" viewBox="0 0 23 13" fill="none" xmlns="http://www.w3.org/2000/svg">
<path fill-rule="evenodd" clip-rule="evenodd" d="M11.253 12.9456H12.6278C12.6278 12.9456 13.0431 12.9004 13.2551 12.674C13.4502 12.4661 13.444 12.0757 13.444 12.0757C13.444 12.0757 13.4171 10.248 14.2733 9.97883C15.1173 9.71371 16.2011 11.7453 17.3498 12.5264C18.2185 13.1176 18.8785 12.988 18.8785 12.988L21.9501 12.9456C21.9501 12.9456 23.5568 12.8475 22.795 11.5958C22.7325 11.4934 22.3513 10.6699 20.5113 8.97775C18.5853 7.20667 18.8433 7.49313 21.1632 4.42956C22.5761 2.56382 23.1409 1.42476 22.9645 0.936906C22.7962 0.47225 21.7571 0.595066 21.7571 0.595066L18.2987 0.616411C18.2987 0.616411 18.0424 0.581763 17.8522 0.694369C17.6664 0.80481 17.5468 1.0622 17.5468 1.0622C17.5468 1.0622 16.9995 2.50597 16.2695 3.73381C14.7295 6.32469 14.1137 6.46143 13.8621 6.30056C13.2766 5.92562 13.4228 4.79429 13.4228 3.99058C13.4228 1.47983 13.8071 0.432963 12.6743 0.161965C12.2984 0.0719416 12.0217 0.0125449 11.0603 0.00295476C9.82637 -0.00972893 8.78192 0.00666665 8.19054 0.293751C7.79711 0.484625 7.49361 0.909992 7.67846 0.934432C7.90702 0.964749 8.42472 1.07272 8.69918 1.44302C9.05357 1.92067 9.04108 2.99352 9.04108 2.99352C9.04108 2.99352 9.24466 5.94913 8.56554 6.31634C8.09936 6.56815 7.45989 6.054 6.08697 3.7035C5.38349 2.49947 4.85237 1.16862 4.85237 1.16862C4.85237 1.16862 4.74996 0.919891 4.56729 0.786867C4.3456 0.625692 4.03586 0.574339 4.03586 0.574339L0.749524 0.595684C0.749524 0.595684 0.256184 0.609297 0.0750839 0.821826C-0.0860324 1.01084 0.0622819 1.40187 0.0622819 1.40187C0.0622819 1.40187 2.63515 7.36568 5.54835 10.3711C8.21957 13.1265 11.253 12.9456 11.253 12.9456Z" fill="white"/>
</svg>
