<svg width="30" height="18" viewBox="0 0 30 18" fill="none" xmlns="http://www.w3.org/2000/svg">
<path fill-rule="evenodd" clip-rule="evenodd" d="M14.6778 17.3806H16.471C16.471 17.3806 17.0127 17.3212 17.2892 17.0233C17.5438 16.7499 17.5356 16.2365 17.5356 16.2365C17.5356 16.2365 17.5006 13.8328 18.6174 13.4788C19.7182 13.1301 21.1318 15.802 22.6302 16.8293C23.7632 17.6068 24.6242 17.4363 24.6242 17.4363L28.6305 17.3806C28.6305 17.3806 30.7263 17.2516 29.7326 15.6054C29.6511 15.4708 29.1539 14.3877 26.7538 12.1622C24.2418 9.83295 24.5782 10.2097 27.6042 6.18059C29.4471 3.72683 30.1838 2.22878 29.9537 1.58717C29.7342 0.976068 28.3788 1.13759 28.3788 1.13759L23.8679 1.16566C23.8679 1.16566 23.5335 1.1201 23.2855 1.26819C23.0432 1.41344 22.8872 1.75195 22.8872 1.75195C22.8872 1.75195 22.1732 3.65075 21.221 5.26557C19.2124 8.673 18.4092 8.85283 18.081 8.64127C17.3173 8.14816 17.5079 6.66028 17.5079 5.60326C17.5079 2.3012 18.0093 0.924399 16.5317 0.567991C16.0414 0.449596 15.6805 0.371479 14.4265 0.358866C12.817 0.342185 11.4547 0.363748 10.6833 0.741312C10.1701 0.992343 9.77428 1.55177 10.0154 1.58391C10.3135 1.62379 10.9888 1.76578 11.3468 2.25279C11.809 2.88098 11.7927 4.29196 11.7927 4.29196C11.7927 4.29196 12.0583 8.17908 11.1724 8.66202C10.5644 8.9932 9.7303 8.317 7.93953 5.2257C7.02194 3.64221 6.32918 1.89191 6.32918 1.89191C6.32918 1.89191 6.19559 1.56479 5.95734 1.38984C5.66818 1.17787 5.26416 1.11033 5.26416 1.11033L0.97764 1.1384C0.97764 1.1384 0.334153 1.15631 0.0979356 1.43582C-0.112216 1.68441 0.0812373 2.19868 0.0812373 2.19868C0.0812373 2.19868 3.43715 10.0421 7.23698 13.9947C10.7212 17.6186 14.6778 17.3806 14.6778 17.3806Z" fill="white"/>
</svg>
