<svg width="24" height="24" viewBox="0 0 24 24" fill="none" xmlns="http://www.w3.org/2000/svg">
<path d="M18.3051 7.10609C19.0988 7.10609 19.7601 6.44472 19.7601 5.65107C19.7601 4.85742 19.0988 4.19604 18.3051 4.19604C17.5115 4.19604 16.8501 4.85742 16.8501 5.65107C16.8501 6.44472 17.5115 7.10609 18.3051 7.10609Z" fill="white"/>
<path d="M11.9998 18.1288C15.3949 18.1288 18.1286 15.3951 18.1286 12.0001C18.1286 8.60502 15.3949 5.87134 11.9998 5.87134C8.60478 5.87134 5.87109 8.60502 5.87109 12.0001C5.87109 15.351 8.60478 18.1288 11.9998 18.1288ZM11.9998 8.47275C13.9399 8.47275 15.5272 10.06 15.5272 12.0001C15.5272 13.9401 13.9399 15.5274 11.9998 15.5274C10.0598 15.5274 8.4725 13.9401 8.4725 12.0001C8.42841 10.06 10.0598 8.47275 11.9998 8.47275Z" fill="white"/>
<path d="M6.09168 23.9047H17.9082C21.2151 23.9047 23.9047 21.2151 23.9047 17.9082V6.09168C23.9047 2.78481 21.2151 0.0952148 17.9082 0.0952148H6.09168C2.78481 0.0952148 0.0952148 2.78481 0.0952148 6.09168V17.9082C0.0952148 21.2151 2.78481 23.9047 6.09168 23.9047ZM2.69662 6.09168C2.69662 4.19574 4.23983 2.69662 6.09168 2.69662H17.9082C19.8042 2.69662 21.3033 4.23983 21.3033 6.09168V17.9082C21.3033 19.8042 19.7601 21.3033 17.9082 21.3033H6.09168C4.19574 21.3033 2.69662 19.7601 2.69662 17.9082V6.09168Z" fill="white"/>
</svg>
