<svg width="55" height="37" viewBox="0 0 55 37" fill="none" xmlns="http://www.w3.org/2000/svg">
<path d="M54.7373 30.0599H53.1601H52.3406C52.2633 29.6535 52.155 29.3721 51.9849 29.2158C51.7221 28.9501 51.2891 28.825 50.6861 28.825C50.0831 28.825 49.681 28.9188 49.4491 29.122C49.279 29.2783 49.1862 29.4815 49.1862 29.7473C49.1862 30.1224 49.6965 30.4038 50.6861 30.6383C51.8303 30.8884 52.6498 31.1072 53.1601 31.2792C53.2993 31.3261 53.4075 31.373 53.4848 31.4199C54.5053 31.9044 55.0001 32.6391 55.0001 33.6239C55.0001 34.8275 54.5053 35.7029 53.5157 36.2656C53.392 36.3282 53.2683 36.3907 53.1446 36.4532C52.5107 36.7346 51.7685 36.8753 50.9335 36.8753C49.681 36.8753 48.676 36.6564 47.9029 36.2031C47.4235 35.9218 47.0524 35.5622 46.8205 35.1245C46.5731 34.6869 46.4648 34.1866 46.4648 33.6083H48.9852C48.9852 34.046 49.1398 34.3899 49.4491 34.6243C49.7583 34.8744 50.2841 34.9995 51.0108 34.9995C51.5675 34.9995 51.9849 34.8744 52.2478 34.6556C52.4643 34.468 52.5571 34.2648 52.5571 34.0303C52.5571 33.6395 52.0623 33.3269 51.0727 33.1081C49.6037 32.7954 48.676 32.5297 48.2894 32.3421C47.2844 31.8732 46.7896 31.1229 46.7896 30.1068C46.7896 29.294 47.0524 28.5905 47.5781 28.0278C48.243 27.3087 49.2326 26.9648 50.5469 26.9648C51.6293 26.9648 52.4952 27.1212 53.1601 27.4338C53.2219 27.4651 53.2683 27.4807 53.3147 27.5119C53.7786 27.7777 54.1342 28.1216 54.3816 28.5436C54.6136 28.9657 54.7373 29.4659 54.7373 30.0599Z" fill="black"/>
<path d="M53.4553 24.135C53.4553 24.0881 53.4398 24.0412 53.4243 24.0099C53.3934 23.963 53.3625 23.9474 53.3161 23.9318C53.2852 23.9161 53.2388 23.9161 53.1615 23.9005H53.0687H52.7749V24.3694H53.0842C53.1151 24.3694 53.146 24.3694 53.1615 24.3694C53.2697 24.3538 53.347 24.3382 53.3779 24.3069C53.4243 24.26 53.4553 24.1975 53.4553 24.135ZM53.6563 23.8849C53.7027 23.9474 53.7336 24.0255 53.7336 24.1037C53.7336 24.2131 53.6872 24.3225 53.6099 24.4007C53.5326 24.4789 53.4243 24.5414 53.2852 24.5414C53.347 24.5726 53.3779 24.5883 53.4243 24.6195L53.6563 24.9322L53.8418 25.2448H53.548L53.4089 24.9947C53.3161 24.8384 53.2388 24.7133 53.1769 24.6664C53.1615 24.6508 53.1615 24.6508 53.146 24.6352L52.945 24.5726H52.7904V25.2448H52.543V23.666H53.0842C53.1151 23.666 53.146 23.6816 53.1769 23.6816C53.3161 23.6816 53.4089 23.6973 53.4707 23.7285C53.5326 23.7598 53.5944 23.8067 53.6563 23.8849Z" fill="black"/>
<path d="M54.3514 24.4635C54.3514 24.2447 54.305 24.0415 54.1968 23.8539C54.0886 23.6663 53.9339 23.51 53.7484 23.4006C53.5629 23.3068 53.3618 23.2442 53.1608 23.2442C53.1454 23.2442 53.1454 23.2442 53.1454 23.2442C52.9444 23.2442 52.7433 23.3068 52.5578 23.4006C52.3722 23.51 52.2176 23.6663 52.1094 23.8539C52.0011 24.0415 51.9393 24.2447 51.9393 24.4635C51.9393 24.6667 52.0011 24.8699 52.1094 25.0731C52.2022 25.2607 52.3568 25.4014 52.5423 25.5108C52.7279 25.6202 52.9289 25.6671 53.1454 25.6671C53.1454 25.6671 53.1454 25.6671 53.1608 25.6671C53.3618 25.6671 53.5629 25.6202 53.7639 25.5108C53.9494 25.4014 54.104 25.2451 54.1968 25.0731C54.305 24.8699 54.3514 24.6667 54.3514 24.4635ZM54.5988 24.4635C54.5988 24.7136 54.537 24.9481 54.4133 25.1826C54.2896 25.417 54.1195 25.589 53.8876 25.714C53.6556 25.8547 53.4237 25.9016 53.1763 25.9016C53.1608 25.9016 53.1608 25.9016 53.1608 25.9016C52.9134 25.9016 52.6815 25.8391 52.4496 25.714C52.2176 25.589 52.0475 25.417 51.9238 25.1826C51.7847 24.9481 51.7383 24.7136 51.7383 24.4635C51.7383 24.1978 51.8001 23.9633 51.9238 23.7288C52.063 23.4943 52.2331 23.3224 52.465 23.1973C52.697 23.0723 52.9289 23.0098 53.1608 23.0098C53.1608 23.0098 53.1608 23.0098 53.1763 23.0098C53.4237 23.0098 53.6556 23.0723 53.8876 23.1973C54.1195 23.3224 54.305 23.4943 54.4287 23.7288C54.537 23.9477 54.5988 24.1978 54.5988 24.4635Z" fill="black"/>
<path d="M40.5126 12.6303L47.3161 24.0727H40.5126H36.3996L29.9053 13.1462L24.9883 4.87706L29.9053 1.87579L32.9978 0L40.5126 12.6303Z" fill="black"/>
<path d="M45.4437 32.0294V36.7189H43.1861V36.2031C42.4285 36.7033 41.5162 37.0003 40.5421 37.0003C40.5266 37.0003 40.5266 37.0003 40.5111 37.0003C37.8207 36.9847 35.625 34.765 35.625 32.0294C35.625 29.3095 37.8207 27.0742 40.5111 27.0586C40.5266 27.0586 40.5266 27.0586 40.5421 27.0586C41.5162 27.0586 42.4285 27.3556 43.1861 27.8558V27.3087H45.4437V32.0294ZM43.1861 32.5453V31.5136C42.9387 30.2631 41.8409 29.3095 40.5421 29.3095C40.5266 29.3095 40.5266 29.3095 40.5111 29.3095C39.0267 29.3252 37.8361 30.5444 37.8361 32.0294C37.8361 33.5301 39.0422 34.7493 40.5111 34.765C40.5266 34.765 40.5266 34.765 40.5421 34.765C41.8409 34.765 42.9387 33.7958 43.1861 32.5453Z" fill="black"/>
<path d="M34.8382 32.0287V36.7182H32.5807V36.2024C31.8076 36.7026 30.9107 36.9996 29.9366 36.9996C29.9211 36.9996 29.9211 36.9996 29.9057 36.9996C27.2152 36.984 25.0195 34.7643 25.0195 32.0287C25.0195 29.3089 27.2152 27.0735 29.9057 27.0579C29.9211 27.0579 29.9211 27.0579 29.9366 27.0579C30.9107 27.0579 31.823 27.3549 32.5807 27.8551V24.0723H34.8382V32.0287ZM32.5807 32.5446V31.5129C32.3333 30.2624 31.2354 29.3089 29.9366 29.3089C29.9211 29.3089 29.9211 29.3089 29.9057 29.3089C28.4213 29.3245 27.2307 30.5437 27.2307 32.0287C27.2307 33.5294 28.4367 34.7486 29.9057 34.7643C29.9211 34.7643 29.9211 34.7643 29.9366 34.7643C31.2354 34.7643 32.3333 33.7951 32.5807 32.5446Z" fill="black"/>
<path d="M29.9055 19.5711L32.565 24.073H29.9055H21.664L15.6027 13.8968L15.3398 13.4435L15.6027 13.2871L23.3649 8.56641L29.9055 19.5711Z" fill="black"/>
<path d="M24.1226 27.0586H21.6641V36.7189H24.1226V27.0586Z" fill="black"/>
<path d="M24.1226 24.1348H21.6641V26.3232H24.1226V24.1348Z" fill="black"/>
<path d="M20.5333 32.0287V36.7182H18.2758V36.2024C17.5027 36.7026 16.5904 36.9996 15.6163 36.9996C15.6008 36.9996 15.6008 36.9996 15.5854 36.9996C12.8949 36.984 10.6992 34.7643 10.6992 32.0287C10.6992 29.3089 12.8949 27.0735 15.5854 27.0579C15.6008 27.0579 15.6008 27.0579 15.6163 27.0579C16.5904 27.0579 17.5027 27.3549 18.2758 27.8551V24.0723H20.5333V32.0287ZM18.2758 32.5446V31.5129C18.0284 30.2624 16.9306 29.3089 15.6163 29.3089C15.6008 29.3089 15.6008 29.3089 15.5854 29.3089C14.101 29.3245 12.9104 30.5437 12.9104 32.0287C12.9104 33.5294 14.1164 34.7486 15.5854 34.7643C15.6008 34.7643 15.6008 34.7643 15.6163 34.7643C16.9461 34.7643 18.0439 33.7951 18.2758 32.5446Z" fill="black"/>
<path d="M15.6028 20.3207L17.8294 24.0723H15.6028H6.91294L5.69141 22.0089L13.7164 17.1475L15.6028 20.3207Z" fill="black"/>
<path d="M9.81867 32.0294V36.7189H7.56115V36.2031C6.78802 36.7033 5.87574 37.0003 4.9016 37.0003C4.88614 37.0003 4.88614 37.0003 4.87068 37.0003C2.19567 36.9847 0 34.7493 0 32.0294C0 29.3095 2.19567 27.0742 4.88614 27.0586C4.9016 27.0586 4.9016 27.0586 4.91706 27.0586C5.8912 27.0586 6.80349 27.3556 7.57661 27.8558V27.3087H9.83413V32.0294H9.81867ZM7.56115 32.5453V31.5136C7.31375 30.2631 6.21591 29.3095 4.9016 29.3095C4.88614 29.3095 4.88614 29.3095 4.87068 29.3095C3.40174 29.3252 2.19567 30.5444 2.19567 32.0294C2.19567 33.5301 3.40174 34.7493 4.87068 34.765C4.88614 34.765 4.88614 34.765 4.9016 34.765C6.23138 34.765 7.32921 33.7958 7.56115 32.5453Z" fill="black"/>
</svg>
