<svg width="18" height="20" viewBox="0 0 18 20" fill="none" xmlns="http://www.w3.org/2000/svg">
<path fill-rule="evenodd" clip-rule="evenodd" d="M0 4.50092C0 4.00386 0.402944 3.60092 0.9 3.60092H17.1C17.5971 3.60092 18 4.00386 18 4.50092C18 4.99797 17.5971 5.40092 17.1 5.40092H0.9C0.402944 5.40092 0 4.99797 0 4.50092Z" fill="#ACACAC"/>
<path fill-rule="evenodd" clip-rule="evenodd" d="M7.2 1.80092C6.96131 1.80092 6.73239 1.89574 6.5636 2.06452C6.39482 2.2333 6.3 2.46222 6.3 2.70092V3.60092H11.7V2.70092C11.7 2.46222 11.6052 2.2333 11.4364 2.06452C11.2676 1.89574 11.0387 1.80092 10.8 1.80092H7.2ZM13.5 3.60092V2.70092C13.5 1.98483 13.2155 1.29808 12.7092 0.791727C12.2028 0.285379 11.5161 0.000915527 10.8 0.000915527H7.2C6.48392 0.000915527 5.79716 0.285379 5.29081 0.791727C4.78446 1.29808 4.5 1.98483 4.5 2.70092V3.60092H2.7C2.20294 3.60092 1.8 4.00386 1.8 4.50092V17.1009C1.8 17.817 2.08446 18.5038 2.59081 19.0101C3.09716 19.5165 3.78391 19.8009 4.5 19.8009H13.5C14.2161 19.8009 14.9028 19.5165 15.4092 19.0101C15.9155 18.5038 16.2 17.817 16.2 17.1009V4.50092C16.2 4.00386 15.7971 3.60092 15.3 3.60092H13.5ZM3.6 5.40092V17.1009C3.6 17.3396 3.69482 17.5685 3.8636 17.7373C4.03239 17.9061 4.26131 18.0009 4.5 18.0009H13.5C13.7387 18.0009 13.9676 17.9061 14.1364 17.7373C14.3052 17.5685 14.4 17.3396 14.4 17.1009V5.40092H3.6Z" fill="#ACACAC"/>
<path fill-rule="evenodd" clip-rule="evenodd" d="M7.2 8.10091C7.69706 8.10091 8.1 8.50386 8.1 9.00092V14.4009C8.1 14.898 7.69706 15.3009 7.2 15.3009C6.70294 15.3009 6.3 14.898 6.3 14.4009V9.00092C6.3 8.50386 6.70294 8.10091 7.2 8.10091Z" fill="#ACACAC"/>
<path fill-rule="evenodd" clip-rule="evenodd" d="M10.8 8.10091C11.2971 8.10091 11.7 8.50386 11.7 9.00092V14.4009C11.7 14.898 11.2971 15.3009 10.8 15.3009C10.3029 15.3009 9.9 14.898 9.9 14.4009V9.00092C9.9 8.50386 10.3029 8.10091 10.8 8.10091Z" fill="#ACACAC"/>
</svg>
