<svg width="87" height="18" viewBox="0 0 87 18" fill="none" xmlns="http://www.w3.org/2000/svg">
<g clip-path="url(#clip0)">
<path d="M75.404 0H76.1522C76.2218 0.129808 76.187 0.285577 76.187 0.432692C76.0565 2.42308 75.9347 4.42212 75.8129 6.4125C75.7868 6.66346 75.8216 6.94904 75.6824 7.17404C74.6036 9.01731 73.5422 10.8692 72.4634 12.7125C72.2546 12.9721 71.924 13.1019 71.663 13.301C70.2101 14.2788 68.7572 15.2481 67.3043 16.2173C67.0346 16.3817 66.791 16.5894 66.4952 16.7192C66.3734 16.4856 66.1994 16.2779 66.1211 16.0269C69.2009 10.6788 72.3329 5.35673 75.404 0Z" fill="black"/>
<path d="M76.8828 0H77.7354C78.2487 0.986538 78.8403 1.92115 79.3884 2.89038C81.0849 5.81538 82.7814 8.74904 84.4779 11.674C85.3218 13.1019 86.1222 14.5644 86.9922 15.975V16.1308C86.8182 16.3212 86.7138 16.5548 86.5746 16.7712C84.7128 15.5337 82.8597 14.2875 80.9979 13.05C80.85 12.9462 80.6673 12.8596 80.5803 12.6952C79.5015 10.826 78.4227 8.95673 77.3352 7.09615C77.2656 6.96635 77.2743 6.80192 77.2656 6.65481C77.1525 4.43942 76.9959 2.22404 76.8828 0Z" fill="black"/>
<path d="M73.1681 14.1664C74.0381 14.1231 74.9081 14.1837 75.7694 14.1318C77.0744 14.1231 78.3881 14.1318 79.6931 14.1318C79.8758 14.1231 80.0411 14.2183 80.1977 14.2962C82.1987 15.3087 84.2084 16.3125 86.2007 17.3337C86.192 17.576 85.9658 17.775 85.8788 18.0087H67.2521C67.1216 17.7837 66.9215 17.5674 66.8867 17.3164C67.8785 16.7885 68.8877 16.2952 69.8969 15.7933C70.9931 15.2568 72.0632 14.6683 73.1681 14.1664Z" fill="black"/>
<path d="M0 4.57025C1.74 4.5616 3.48 4.57025 5.22 4.57025C5.9769 4.5616 6.7425 4.59621 7.482 4.76064C8.4303 4.95968 9.3786 5.40102 9.9789 6.18852C10.6488 7.05391 10.7967 8.21352 10.6575 9.26929C10.527 10.2212 9.9963 11.1212 9.1872 11.6491C8.3346 12.2376 7.2732 12.3674 6.264 12.2981C7.7343 13.9251 9.1959 15.552 10.6662 17.1789C10.8141 17.3347 10.9533 17.4991 11.0838 17.6722C9.9963 17.6895 8.9175 17.6722 7.83 17.6808C6.2814 15.9847 4.7415 14.2712 3.2016 12.5664C3.0015 12.3501 2.8188 12.1078 2.5839 11.9174C2.5491 13.8299 2.5665 15.7424 2.5752 17.6549C1.7226 17.7068 0.8613 17.6635 0 17.6808V4.57025H0ZM2.5752 6.83756C2.5665 8.03179 2.5665 9.22602 2.5752 10.4289C3.6888 10.4376 4.8024 10.4289 5.9247 10.4376C6.4989 10.4203 7.0992 10.3683 7.6125 10.0828C7.9779 9.88371 8.2128 9.49429 8.2824 9.08756C8.3868 8.55102 8.3172 7.94525 7.9257 7.53852C7.4298 7.0366 6.699 6.88948 6.0204 6.84621C4.8633 6.82891 3.7149 6.84621 2.5752 6.83756Z" fill="black"/>
<path d="M32.8164 4.57785C33.6777 4.55189 34.5303 4.56055 35.3916 4.5692C35.3916 5.64228 35.3829 6.71535 35.3916 7.78843C35.8179 7.50286 36.3051 7.30382 36.8097 7.22593C38.1234 7.00959 39.5589 7.20862 40.6377 8.02209C41.6469 8.76632 42.2211 10.0038 42.2385 11.2413C42.2385 12.1067 42.2385 12.9721 42.2385 13.8375C42.2472 14.8932 41.847 15.975 41.0988 16.7279C40.2897 17.55 39.1326 17.9221 38.0016 17.9913H37.0011C36.0789 17.9221 35.1915 17.5759 34.4433 17.0394C33.8865 17.2211 33.4428 17.7923 32.8164 17.6538C32.8251 13.3009 32.8251 8.93939 32.8164 4.57785ZM36.8445 9.47593C36.0702 9.62305 35.4525 10.298 35.4003 11.0855C35.3655 12.0029 35.4003 12.9288 35.3829 13.8461C35.3742 14.5384 35.7657 15.2307 36.4095 15.5163C37.1229 15.8538 38.0016 15.8365 38.715 15.499C39.3066 15.2048 39.672 14.573 39.6894 13.924C39.6981 13.0586 39.6894 12.1932 39.6894 11.3279C39.6894 10.7221 39.4197 10.0817 38.889 9.75286C38.2887 9.38074 37.5231 9.30286 36.8445 9.47593Z" fill="black"/>
<path d="M54.2713 4.56934C55.1239 4.56934 55.9765 4.56934 56.8291 4.56934C56.8378 6.91453 56.8378 9.25972 56.8291 11.6049C57.5077 10.9213 58.0993 10.1684 58.7518 9.45876C59.4391 8.68857 60.1177 7.90972 60.805 7.13953C61.849 7.12222 62.893 7.15684 63.937 7.12222C63.9544 7.25203 63.8327 7.33857 63.7631 7.42511C62.3101 9.05203 60.8833 10.6963 59.4304 12.3145C60.631 13.6732 61.8664 15.0059 63.0844 16.3559C63.4585 16.7972 63.8935 17.1953 64.2416 17.6626C63.2149 17.6799 62.197 17.6626 61.1704 17.6713C60.9703 17.6972 60.8833 17.4809 60.7615 17.3684C59.4565 15.9318 58.1602 14.478 56.8378 13.0588C56.8465 14.5905 56.8378 16.1309 56.8378 17.6626C55.9852 17.6713 55.1326 17.6713 54.28 17.6626C54.2626 13.3011 54.2626 8.93088 54.2713 4.56934Z" fill="black"/>
<path d="M12.5789 8.35094C13.4837 7.4769 14.78 7.13075 16.0154 7.1394C17.1638 7.11344 18.347 7.38171 19.2779 8.07402C20.0348 8.62786 20.5394 9.48459 20.7134 10.3932C20.8613 11.1029 20.8004 11.8298 20.8091 12.5481C20.8004 12.799 20.8439 13.05 20.7743 13.2923C18.4862 13.275 16.1981 13.275 13.9187 13.2923C13.8839 13.9759 13.997 14.7461 14.5103 15.2481C14.9801 15.6807 15.65 15.7586 16.2677 15.8192C16.8767 15.8106 17.5553 15.7586 18.0425 15.3519C18.2687 15.1702 18.3383 14.8846 18.4253 14.625C19.2083 14.599 19.9913 14.599 20.7743 14.625C20.7047 15.4471 20.4089 16.2779 19.7999 16.8577C19.1213 17.5413 18.1469 17.8615 17.2073 17.9394C16.5461 17.9221 15.8936 17.9394 15.2324 17.9307C14.2232 17.7923 13.2314 17.3682 12.518 16.6327C11.7698 15.8798 11.3696 14.8154 11.3957 13.7596C11.3957 12.8942 11.3957 12.0288 11.3957 11.1634C11.4218 10.125 11.8133 9.06921 12.5789 8.35094ZM14.3885 9.89998C13.997 10.2981 13.91 10.8865 13.9187 11.4231C15.3803 11.4231 16.8332 11.4231 18.2948 11.4231C18.3122 10.9817 18.2513 10.5144 17.999 10.1423C17.6771 9.6144 17.0507 9.35479 16.4504 9.30286C15.7283 9.23363 14.9105 9.34613 14.3885 9.89998Z" fill="black"/>
<path d="M23.3519 8.25549C24.2828 7.43338 25.5704 7.11319 26.7971 7.13915C28.0499 7.12184 29.381 7.4853 30.2945 8.37665C31.1384 9.1728 31.5212 10.367 31.4777 11.5093C31.4516 12.1065 31.5212 12.7036 31.4429 13.3007C29.1722 13.2661 26.9015 13.3093 24.6395 13.2834C24.5264 13.9151 24.6569 14.6334 25.0745 15.1353C25.5356 15.6718 26.3012 15.7757 26.9711 15.819C27.6497 15.8016 28.4588 15.7411 28.8938 15.1526C29.033 14.9968 28.9982 14.7459 29.1374 14.6074C29.903 14.5988 30.6686 14.5988 31.4255 14.6074C31.3733 15.4815 31.0253 16.3641 30.3554 16.9613C29.6681 17.5843 28.7372 17.8613 27.8237 17.9478C27.1886 17.9218 26.5535 17.9218 25.9271 17.9305C24.6917 17.8007 23.4737 17.169 22.7603 16.1305C22.2905 15.4641 22.0556 14.6593 22.0469 13.8459C22.0469 12.9805 22.0469 12.1151 22.0469 11.2497C22.073 10.1334 22.4906 8.99972 23.3519 8.25549ZM25.0745 9.88242C24.683 10.2891 24.5612 10.8776 24.6047 11.4228C26.0576 11.4228 27.5105 11.4315 28.9634 11.4141C28.9721 10.9209 28.9025 10.393 28.5719 10.0122C28.1978 9.52761 27.5714 9.31992 26.9711 9.29396C26.3012 9.25069 25.553 9.37184 25.0745 9.88242Z" fill="black"/>
<path d="M47.2504 7.19954C48.5728 7.03512 50.0083 7.15627 51.1567 7.88319C51.9919 8.40242 52.5835 9.26781 52.8097 10.2111C53.0098 10.9726 52.9315 11.7688 52.9489 12.5476C52.9315 13.3005 53.0098 14.0707 52.8358 14.8063C52.6357 15.7668 52.0615 16.6582 51.2263 17.1947C50.6086 17.6015 49.8865 17.8438 49.1557 17.9217C48.5815 17.913 48.0073 17.9043 47.4331 17.9303C46.2499 17.8178 45.0493 17.2899 44.3272 16.3207C43.9096 15.7755 43.6747 15.1178 43.579 14.4428C43.492 13.8717 43.5355 13.2918 43.5268 12.712C43.5442 11.8034 43.4485 10.8688 43.7269 9.98608C43.9879 9.10339 44.5795 8.31589 45.3799 7.83992C45.9367 7.49377 46.5892 7.29473 47.2504 7.19954ZM47.4505 9.48416C47.0503 9.59666 46.6588 9.82166 46.4239 10.1678C46.1629 10.5313 46.0759 10.9813 46.0759 11.4226C46.0759 12.1668 46.0759 12.9197 46.0759 13.6726C46.0759 14.1486 46.189 14.6505 46.4935 15.0226C46.8067 15.412 47.2939 15.6197 47.7724 15.7063C48.4771 15.8101 49.2688 15.6976 49.8169 15.2043C50.2432 14.8236 50.3998 14.2351 50.3998 13.6813C50.3998 12.9024 50.4085 12.1236 50.3998 11.3447C50.3911 10.7822 50.1823 10.1938 49.7212 9.84762C49.0774 9.35435 48.1987 9.28512 47.4505 9.48416Z" fill="black"/>
</g>
<defs>
<clipPath id="clip0">
<rect width="87" height="18" fill="white"/>
</clipPath>
</defs>
</svg>
