<svg width="20" height="19" viewBox="0 0 20 19" fill="none" xmlns="http://www.w3.org/2000/svg">
<path d="M9.57887 16.5417L9.57674 16.5397C6.97239 14.0944 4.93006 12.1726 3.5208 10.3886C2.13016 8.62823 1.5 7.17585 1.5 5.69482C1.5 3.28451 3.29721 1.5 5.5 1.5C6.76596 1.5 8.01983 2.11778 8.84148 3.11683L10 4.52549L11.1585 3.11683C11.9802 2.11778 13.234 1.5 14.5 1.5C16.7028 1.5 18.5 3.28451 18.5 5.69482C18.5 7.17587 17.8698 8.62832 16.4789 10.3903C15.0696 12.1756 13.0276 14.0996 10.4236 16.5497C10.4231 16.5502 10.4226 16.5507 10.4221 16.5512L10.0039 16.9424L9.57887 16.5417Z" stroke="black" stroke-width="3"/>
</svg>
