<svg width="19" height="18" viewBox="0 0 19 18" fill="none" xmlns="http://www.w3.org/2000/svg">
<path d="M17.87 14.2253L15.0901 11.4452C14.5364 10.8937 13.6195 10.9105 13.0466 11.4837L11.6461 12.8838C11.5576 12.8351 11.466 12.7841 11.3697 12.7301C10.4853 12.2401 9.27489 11.5684 8.00115 10.2938C6.72364 9.0164 6.05138 7.8041 5.55985 6.91914C5.50798 6.82538 5.45828 6.73499 5.40921 6.64915L6.34914 5.71061L6.81124 5.24794C7.3851 4.67393 7.40092 3.75727 6.84853 3.2042L4.06871 0.423766C3.51632 -0.128526 2.59898 -0.111771 2.02513 0.46224L1.24168 1.25019L1.26309 1.27144C1.00039 1.60664 0.78087 1.99325 0.617509 2.41015C0.466922 2.807 0.373167 3.18569 0.330297 3.56516C-0.0367596 6.60814 1.35379 9.3892 5.12758 13.163C10.3441 18.3792 14.5479 17.9851 14.7293 17.9659C15.1243 17.9187 15.5028 17.8243 15.8875 17.6749C16.3008 17.5135 16.6871 17.2943 17.0221 17.0321L17.0392 17.0473L17.8329 16.2701C18.4056 15.6962 18.4221 14.7793 17.87 14.2253Z" fill="white"/>
</svg>
