<svg width="20" height="20" viewBox="0 0 20 20" fill="none" xmlns="http://www.w3.org/2000/svg">
<path d="M15.2964 5.88975C15.9631 5.88975 16.5187 5.3342 16.5187 4.66753C16.5187 4.00087 15.9631 3.44531 15.2964 3.44531C14.6298 3.44531 14.0742 4.00087 14.0742 4.66753C14.0742 5.3342 14.6298 5.88975 15.2964 5.88975Z" fill="white"/>
<path d="M9.9997 15.1478C12.8516 15.1478 15.1478 12.8516 15.1478 9.9997C15.1478 7.14786 12.8516 4.85156 9.9997 4.85156C7.14786 4.85156 4.85156 7.14786 4.85156 9.9997C4.85156 12.8145 7.14786 15.1478 9.9997 15.1478ZM9.9997 7.03675C11.6293 7.03675 12.9627 8.37008 12.9627 9.9997C12.9627 11.6293 11.6293 12.9627 9.9997 12.9627C8.37008 12.9627 7.03675 11.6293 7.03675 9.9997C6.99971 8.37008 8.37008 7.03675 9.9997 7.03675Z" fill="white"/>
<path d="M5.03703 20H14.9629C17.7407 20 20 17.7407 20 14.9629V5.03703C20 2.25926 17.7407 0 14.9629 0H5.03703C2.25926 0 0 2.25926 0 5.03703V14.9629C0 17.7407 2.25926 20 5.03703 20ZM2.18518 5.03703C2.18518 3.44444 3.48148 2.18518 5.03703 2.18518H14.9629C16.5555 2.18518 17.8148 3.48148 17.8148 5.03703V14.9629C17.8148 16.5555 16.5185 17.8148 14.9629 17.8148H5.03703C3.44444 17.8148 2.18518 16.5185 2.18518 14.9629V5.03703Z" fill="white"/>
</svg>
