<svg width="29" height="16" viewBox="0 0 29 16" fill="none" xmlns="http://www.w3.org/2000/svg">
<path fill-rule="evenodd" clip-rule="evenodd" d="M14.1108 15.459H15.7474C15.7474 15.459 16.2418 15.4052 16.4942 15.1356C16.7265 14.8882 16.7191 14.4234 16.7191 14.4234C16.7191 14.4234 16.6871 12.2476 17.7064 11.9272C18.7111 11.6115 20.0014 14.0301 21.3689 14.96C22.403 15.6638 23.1888 15.5095 23.1888 15.5095L26.8454 15.459C26.8454 15.459 28.7582 15.3423 27.8512 13.8522C27.7769 13.7303 27.323 12.7499 25.1325 10.7354C22.8398 8.62698 23.1468 8.96801 25.9087 5.32089C27.5907 3.09978 28.2631 1.74376 28.0531 1.16297C27.8527 0.60981 26.6157 0.756019 26.6157 0.756019L22.4985 0.78143C22.4985 0.78143 22.1934 0.740182 21.967 0.874238C21.7458 1.00571 21.6034 1.31213 21.6034 1.31213C21.6034 1.31213 20.9518 3.03091 20.0828 4.49262C18.2495 7.577 17.5164 7.73978 17.2168 7.54827C16.5199 7.10191 16.6938 5.7551 16.6938 4.7983C16.6938 1.80931 17.1514 0.563039 15.8028 0.240423C15.3553 0.133252 15.0259 0.0625418 13.8814 0.051125C12.4124 0.0360254 11.169 0.0555439 10.465 0.397311C9.99663 0.624542 9.63532 1.13093 9.85538 1.16003C10.1275 1.19612 10.7438 1.32465 11.0705 1.76548C11.4924 2.33411 11.4775 3.61132 11.4775 3.61132C11.4775 3.61132 11.7199 7.1299 10.9114 7.56705C10.3565 7.86684 9.59518 7.25475 7.96075 4.45653C7.12327 3.02317 6.49099 1.43882 6.49099 1.43882C6.49099 1.43882 6.36906 1.14272 6.15161 0.984354C5.88769 0.792479 5.51895 0.731345 5.51895 0.731345L1.60665 0.756755C1.60665 0.756755 1.01934 0.772961 0.803741 1.02597C0.611936 1.25099 0.788501 1.7165 0.788501 1.7165C0.788501 1.7165 3.85143 8.81627 7.31954 12.3941C10.4996 15.6744 14.1108 15.459 14.1108 15.459Z" fill="white"/>
</svg>
