<svg width="21" height="21" viewBox="0 0 21 21" fill="none" xmlns="http://www.w3.org/2000/svg">
<path d="M19.8333 14.5833C18.375 14.5833 16.975 14.35 15.6683 13.9183C15.26 13.79 14.805 13.8833 14.4783 14.1983L11.9117 16.765C8.61 15.085 5.90333 12.39 4.22333 9.07667L6.79 6.49833C7.11667 6.195 7.21 5.74 7.08167 5.33167C6.65 4.025 6.41667 2.625 6.41667 1.16667C6.41667 0.525 5.89167 0 5.25 0H1.16667C0.525 0 0 0.525 0 1.16667C0 12.1217 8.87833 21 19.8333 21C20.475 21 21 20.475 21 19.8333V15.75C21 15.1083 20.475 14.5833 19.8333 14.5833Z" fill="black"/>
</svg>
