<svg width="19" height="18" viewBox="0 0 19 18" fill="none" xmlns="http://www.w3.org/2000/svg">
<path d="M17.8709 14.2245L15.0911 11.4443C14.5374 10.8929 13.6204 10.9096 13.0475 11.4828L11.647 12.883C11.5585 12.8342 11.4669 12.7833 11.3706 12.7292C10.4862 12.2392 9.2758 11.5676 8.00207 10.2929C6.72456 9.01554 6.05229 7.80324 5.56076 6.91828C5.50889 6.82453 5.4592 6.73414 5.41012 6.64829L6.35005 5.70976L6.81216 5.24709C7.38601 4.67307 7.40184 3.75642 6.84944 3.20335L4.06963 0.422911C3.51723 -0.12938 2.5999 -0.112625 2.02604 0.461386L1.2426 1.24933L1.26401 1.27059C1.00131 1.60579 0.781785 1.99239 0.618425 2.4093C0.467838 2.80614 0.374082 3.18483 0.331213 3.5643C-0.0358441 6.60728 1.35471 9.38834 5.1285 13.1622C10.345 18.3783 14.5488 17.9843 14.7302 17.965C15.1252 17.9178 15.5037 17.8235 15.8884 17.6741C16.3017 17.5126 16.688 17.2934 17.023 17.0313L17.0402 17.0465L17.8338 16.2693C18.4065 15.6954 18.423 14.7784 17.8709 14.2245Z" fill="black"/>
</svg>
