<svg width="80" height="54" viewBox="0 0 80 54" fill="none" xmlns="http://www.w3.org/2000/svg">
<g clip-path="url(#clip0)">
<path d="M79.6186 43.8706H77.3245H76.1325C76.02 43.2775 75.8626 42.8668 75.6152 42.6387C75.2328 42.2509 74.6031 42.0683 73.7259 42.0683C72.8488 42.0683 72.264 42.2052 71.9267 42.5018C71.6793 42.7299 71.5443 43.0265 71.5443 43.4144C71.5443 43.9619 72.2865 44.3725 73.7259 44.7147C75.3903 45.0798 76.5823 45.3991 77.3245 45.6501C77.5269 45.7185 77.6843 45.787 77.7968 45.8554C79.2812 46.5626 80.0009 47.6349 80.0009 49.0722C80.0009 50.8288 79.2812 52.1064 77.8418 52.9277C77.6618 53.0189 77.4819 53.1102 77.302 53.2014C76.3799 53.6121 75.3003 53.8174 74.0858 53.8174C72.264 53.8174 70.8021 53.498 69.6776 52.8364C68.9804 52.4258 68.4406 51.901 68.1032 51.2623C67.7434 50.6235 67.5859 49.8934 67.5859 49.0493H71.2519C71.2519 49.6881 71.4769 50.19 71.9267 50.5322C72.3765 50.8972 73.1412 51.0798 74.1983 51.0798C75.0079 51.0798 75.6152 50.8972 75.9975 50.5779C76.3124 50.3041 76.4473 50.0075 76.4473 49.6653C76.4473 49.095 75.7276 48.6387 74.2882 48.3193C72.1516 47.863 70.8021 47.4752 70.2399 47.2014C68.778 46.517 68.0582 45.422 68.0582 43.9391C68.0582 42.7528 68.4406 41.7261 69.2053 40.9048C70.1724 39.8554 71.6118 39.3535 73.5235 39.3535C75.0979 39.3535 76.3574 39.5817 77.3245 40.0379C77.4144 40.0836 77.4819 40.1064 77.5494 40.152C78.2241 40.5398 78.7414 41.0417 79.1013 41.6577C79.4386 42.2737 79.6186 43.0037 79.6186 43.8706Z" fill="black"/>
<path d="M77.7528 35.2235C77.7528 35.155 77.7303 35.0866 77.7078 35.041C77.6628 34.9725 77.6178 34.9497 77.5503 34.9269C77.5053 34.9041 77.4379 34.9041 77.3254 34.8813H77.1905H76.7631V35.5657H77.213C77.2579 35.5657 77.3029 35.5657 77.3254 35.5657C77.4829 35.5429 77.5953 35.5201 77.6403 35.4744C77.7078 35.406 77.7528 35.3147 77.7528 35.2235ZM78.0451 34.8585C78.1126 34.9497 78.1576 35.0638 78.1576 35.1778C78.1576 35.3375 78.0901 35.4972 77.9777 35.6113C77.8652 35.7254 77.7078 35.8166 77.5054 35.8166C77.5953 35.8623 77.6403 35.8851 77.7078 35.9307L78.0451 36.387L78.315 36.8433H77.8877L77.6853 36.4782C77.5503 36.2501 77.4379 36.0676 77.3479 35.9991C77.3254 35.9763 77.3254 35.9763 77.3029 35.9535L77.0105 35.8623H76.7856V36.8433H76.4258V34.5391H77.213C77.2579 34.5391 77.3029 34.5619 77.3479 34.5619C77.5503 34.5619 77.6853 34.5847 77.7752 34.6303C77.8652 34.6759 77.9552 34.7444 78.0451 34.8585Z" fill="black"/>
<path d="M79.0549 35.7037C79.0549 35.3843 78.9874 35.0877 78.8299 34.814C78.6725 34.5402 78.4476 34.3121 78.1777 34.1524C77.9078 34.0155 77.6154 33.9242 77.3231 33.9242C77.3006 33.9242 77.3006 33.9242 77.3006 33.9242C77.0082 33.9242 76.7158 34.0155 76.4459 34.1524C76.176 34.3121 75.9511 34.5402 75.7937 34.814C75.6362 35.0877 75.5463 35.3843 75.5463 35.7037C75.5463 36.0003 75.6362 36.2969 75.7937 36.5934C75.9286 36.8672 76.1535 37.0725 76.4234 37.2322C76.6933 37.3919 76.9857 37.4604 77.3006 37.4604C77.3006 37.4604 77.3006 37.4604 77.3231 37.4604C77.6154 37.4604 77.9078 37.3919 78.2002 37.2322C78.4701 37.0725 78.695 36.8444 78.8299 36.5934C78.9874 36.2969 79.0549 36.0003 79.0549 35.7037ZM79.4147 35.7037C79.4147 36.0687 79.3247 36.4109 79.1448 36.7531C78.9649 37.0953 78.7175 37.3463 78.3801 37.5288C78.0428 37.7341 77.7054 37.8026 77.3456 37.8026C77.3231 37.8026 77.3231 37.8026 77.3231 37.8026C76.9632 37.8026 76.6258 37.7113 76.2885 37.5288C75.9511 37.3463 75.7037 37.0953 75.5238 36.7531C75.3214 36.4109 75.2539 36.0687 75.2539 35.7037C75.2539 35.3159 75.3439 34.9737 75.5238 34.6315C75.7262 34.2893 75.9736 34.0383 76.311 33.8558C76.6483 33.6733 76.9857 33.582 77.3231 33.582C77.3231 33.582 77.3231 33.582 77.3456 33.582C77.7054 33.582 78.0428 33.6733 78.3801 33.8558C78.7175 34.0383 78.9874 34.2893 79.1673 34.6315C79.3247 34.9509 79.4147 35.3159 79.4147 35.7037Z" fill="black"/>
<path d="M58.9285 18.4335L68.8245 35.1331H58.9285H52.9459L43.4997 19.1863L36.3477 7.11787L43.4997 2.73764L47.9979 0L58.9285 18.4335Z" fill="black"/>
<path d="M66.102 46.745V53.5891H62.8183V52.8362C61.7163 53.5663 60.3893 53.9997 58.9724 53.9997C58.9499 53.9997 58.9499 53.9997 58.9274 53.9997C55.014 53.9769 51.8203 50.7374 51.8203 46.745C51.8203 42.7754 55.014 39.513 58.9274 39.4902C58.9499 39.4902 58.9499 39.4902 58.9724 39.4902C60.3893 39.4902 61.7163 39.9237 62.8183 40.6537V39.8553H66.102V46.745ZM62.8183 47.4978V45.9921C62.4585 44.167 60.8616 42.7754 58.9724 42.7754C58.9499 42.7754 58.9499 42.7754 58.9274 42.7754C56.7683 42.7982 55.0365 44.5777 55.0365 46.745C55.0365 48.9351 56.7908 50.7146 58.9274 50.7374C58.9499 50.7374 58.9499 50.7374 58.9724 50.7374C60.8616 50.7374 62.4585 49.3229 62.8183 47.4978Z" fill="black"/>
<path d="M50.6723 46.745V53.5891H47.3887V52.8362C46.2641 53.5663 44.9596 53.9997 43.5427 53.9997C43.5202 53.9997 43.5202 53.9997 43.4977 53.9997C39.5843 53.9769 36.3906 50.7374 36.3906 46.745C36.3906 42.7754 39.5843 39.513 43.4977 39.4902C43.5202 39.4902 43.5202 39.4902 43.5427 39.4902C44.9596 39.4902 46.2866 39.9237 47.3887 40.6537V35.1328H50.6723V46.745ZM47.3887 47.4978V45.9921C47.0288 44.167 45.432 42.7754 43.5427 42.7754C43.5202 42.7754 43.5202 42.7754 43.4977 42.7754C41.3386 42.7982 39.6068 44.5777 39.6068 46.745C39.6068 48.9351 41.3611 50.7146 43.4977 50.7374C43.5202 50.7374 43.5202 50.7374 43.5427 50.7374C45.432 50.7374 47.0288 49.3229 47.3887 47.4978Z" fill="black"/>
<path d="M43.4989 28.5628L47.3673 35.1331H43.4989H31.5113L22.6948 20.2814L22.3125 19.6198L22.6948 19.3917L33.9853 12.502L43.4989 28.5628Z" fill="black"/>
<path d="M35.0878 39.4902H31.5117V53.5891H35.0878V39.4902Z" fill="black"/>
<path d="M35.0878 35.2246H31.5117V38.4185H35.0878V35.2246Z" fill="black"/>
<path d="M29.8667 46.745V53.5891H26.583V52.8362C25.4585 53.5663 24.1315 53.9997 22.7146 53.9997C22.6921 53.9997 22.6921 53.9997 22.6696 53.9997C18.7562 53.9769 15.5625 50.7374 15.5625 46.745C15.5625 42.7754 18.7562 39.513 22.6696 39.4902C22.6921 39.4902 22.6921 39.4902 22.7146 39.4902C24.1315 39.4902 25.4585 39.9237 26.583 40.6537V35.1328H29.8667V46.745ZM26.583 47.4978V45.9921C26.2232 44.167 24.6263 42.7754 22.7146 42.7754C22.6921 42.7754 22.6921 42.7754 22.6696 42.7754C20.5105 42.7982 18.7787 44.5777 18.7787 46.745C18.7787 48.9351 20.533 50.7146 22.6696 50.7374C22.6921 50.7374 22.6921 50.7374 22.7146 50.7374C24.6488 50.7374 26.2457 49.3229 26.583 47.4978Z" fill="black"/>
<path d="M22.694 29.6585L25.9327 35.1338H22.694H10.0541L8.27734 32.1224L19.9501 25.0273L22.694 29.6585Z" fill="black"/>
<path d="M14.2817 46.745V53.5891H10.998V52.8362C9.87349 53.5663 8.54653 53.9997 7.1296 53.9997C7.10711 53.9997 7.10711 53.9997 7.08462 53.9997C3.1937 53.9769 0 50.7146 0 46.745C0 42.7754 3.1937 39.513 7.10711 39.4902C7.1296 39.4902 7.1296 39.4902 7.15209 39.4902C8.56902 39.4902 9.89598 39.9237 11.0205 40.6537V39.8553H14.3042V46.745H14.2817ZM10.998 47.4978V45.9921C10.6382 44.167 9.04133 42.7754 7.1296 42.7754C7.10711 42.7754 7.10711 42.7754 7.08462 42.7754C4.94799 42.7982 3.1937 44.5777 3.1937 46.745C3.1937 48.9351 4.94799 50.7146 7.08462 50.7374C7.10711 50.7374 7.10711 50.7374 7.1296 50.7374C9.06382 50.7374 10.6607 49.3229 10.998 47.4978Z" fill="black"/>
</g>
<defs>
<clipPath id="clip0">
<rect width="80" height="54" fill="white"/>
</clipPath>
</defs>
</svg>
