<svg width="90" height="21" viewBox="0 0 90 21" fill="none" xmlns="http://www.w3.org/2000/svg">
<path d="M76.351 15.65C76.476 18.7462 79.1016 20.9579 83.4777 20.9579C87.0618 20.9579 90 19.3992 90 15.9238C90 13.5015 88.6664 12.0903 85.5615 11.5005L83.1442 11.016C81.6022 10.7212 80.5186 10.4052 80.5186 9.47844C80.5186 8.44634 81.5606 8.00401 82.8734 8.00401C84.7905 8.00401 85.5615 8.97292 85.624 10.1103H89.4374C89.229 7.0983 86.8326 5.07623 82.9984 5.07623C79.0391 5.07623 76.6844 7.2668 76.6844 10.1314C76.6844 13.6279 79.4976 14.1966 81.894 14.66L83.8944 15.0181C85.3323 15.2919 85.9574 15.7131 85.9574 16.5557C85.9574 17.3139 85.2489 18.0722 83.5402 18.0722C81.0604 18.0722 80.2686 16.7663 80.2269 15.65H76.351ZM62.4936 13.0171C62.4936 10.5737 64.4316 8.61485 66.8488 8.61485C69.266 8.61485 71.204 10.5737 71.204 13.0171C71.204 15.4604 69.266 17.4193 66.8488 17.4193C64.4316 17.4193 62.4936 15.4604 62.4936 13.0171ZM71.1623 20.663H74.9549V5.24473H71.1623V6.48746C69.8703 5.58175 68.3283 5.07623 66.6613 5.07623C62.3061 5.07623 58.7844 8.63591 58.7844 13.0381C58.7844 17.4614 62.3061 21 66.6613 21C68.3283 21 69.8912 20.4945 71.1623 19.5888V20.663ZM44.7812 13.0171C44.7812 10.5737 46.7192 8.61485 49.1364 8.61485C51.5536 8.61485 53.4916 10.5737 53.4916 13.0171C53.4916 15.4604 51.5536 17.4193 49.1364 17.4193C46.7192 17.4193 44.7812 15.4604 44.7812 13.0171ZM53.4499 0V6.48746C52.1579 5.58175 50.6159 5.07623 48.9488 5.07623C44.5937 5.07623 41.072 8.63591 41.072 13.0381C41.072 17.4614 44.5937 21 48.9488 21C50.6159 21 52.1787 20.4945 53.4499 19.5888V20.6841H57.2424V0H53.4499ZM39.53 5.24473H35.7374V20.6419H39.53V5.24473ZM39.53 0H35.7374V3.8335H39.53V0ZM21.4216 13.0171C21.4216 10.5737 23.3596 8.61485 25.7768 8.61485C28.194 8.61485 30.132 10.5737 30.132 13.0171C30.132 15.4604 28.194 17.4193 25.7768 17.4193C23.3596 17.4193 21.4216 15.4604 21.4216 13.0171ZM30.0903 0V6.48746C28.7983 5.58175 27.2563 5.07623 25.5893 5.07623C21.2341 5.05517 17.7124 8.61485 17.7124 13.0171C17.7124 17.4403 21.2341 20.9789 25.5893 20.9789C27.2563 20.9789 28.8192 20.4734 30.0903 19.5677V20.663H33.8828V0H30.0903ZM3.70919 13.0171C3.70919 10.5737 5.64714 8.61485 8.06437 8.61485C10.4816 8.61485 12.4195 10.5737 12.4195 13.0171C12.4195 15.4604 10.4816 17.4193 8.06437 17.4193C5.64714 17.4193 3.70919 15.4604 3.70919 13.0171ZM12.3779 20.663H16.1704V5.24473H12.3779V6.48746C11.0859 5.58175 9.54388 5.05517 7.87682 5.05517C3.52165 5.05517 0 8.61485 0 13.0171C0 17.4403 3.52165 20.9789 7.87682 20.9789C9.54388 20.9789 11.1067 20.4734 12.3779 19.5677V20.663Z" fill="white"/>
</svg>
